<svg viewBox="0 0 103 32" class="Icon__IconNonSquare-sc-2c7dee0f-1 bQCLaW DesktopSidebar-styled__StyledLogo-sc-87a92ba7-4 jEntlo" aria-label="На главную" version="1.1" xmlns="http://www.w3.org/2000/svg" xmlns:xlink="http://www.w3.org/1999/xlink"><path fill-rule="evenodd" clip-rule="evenodd" d="M16 0C24.8359 0 32 7.16289 32 16C32 24.8371 24.8359 32 16 32C7.16407 32 0 24.8359 0 16C1.00366e-06 7.16407 7.16407 1.00359e-06 16 0ZM29.1745 12.1224C28.7702 14.9266 27.3447 17.2407 26.1554 18.7465C24.3199 21.0075 21.8609 22.965 19.0391 24.4115C16.2479 25.8426 13.2286 26.7119 10.3082 26.9253C9.81388 26.9538 9.35477 26.9679 8.92448 26.9679C8.4124 26.9679 7.94028 26.9474 7.49219 26.9071C9.83397 28.7414 12.7846 29.8351 15.9896 29.8351L15.9878 29.8333C23.606 29.8333 29.783 23.6573 29.783 16.0391C29.783 14.717 29.5965 13.4389 29.2491 12.2283C29.2242 12.1927 29.1994 12.1568 29.1745 12.1224ZM17.9627 1.4592C13.2496 1.4592 8.96536 3.40283 6.5026 6.65625L6.48698 6.67535C5.42231 7.9724 4.71461 9.39534 4.44184 10.7908C4.28651 11.6398 4.31522 12.4195 4.52865 13.099V13.0972C5.03494 14.6173 6.26645 15.8363 7.66319 16.1944C8.24419 16.3391 8.80271 16.3996 9.32205 16.3759L9.4592 16.3637C12.9903 16.0791 16.139 13.8538 18.7535 11.7135C20.3897 10.3441 21.9548 8.53223 22.0556 7.36198C19.7743 8.46823 17.4192 9.90759 14.704 11.8533C14.4028 12.0679 13.9923 12.0078 13.7682 11.7161C12.4201 9.9708 11.2462 8.55347 10.0712 7.25868C9.9433 7.11644 9.8795 6.92568 9.89844 6.73611C9.91622 6.5464 10.0146 6.37077 10.1675 6.25694C13.7673 3.55716 17.348 2.02742 20.822 1.70486C19.8903 1.54128 18.9348 1.45922 17.9627 1.4592Z" fill="var(--surface-solid-default, #FFFFFFFF)"></path><path fill-rule="evenodd" clip-rule="evenodd" d="M72.2023 16.4054C79.6592 16.4054 80.8576 19.0213 80.0833 21.1484L78.8212 24.7135C78.4324 25.816 79.1507 26.0624 79.6641 26.0625H81.0608C81.1983 26.0625 81.2945 26.2006 81.2483 26.3299L79.8533 30.1641C79.8035 30.2992 79.675 30.3898 79.5304 30.3898H74.1493C71.9432 30.3897 71.3206 29.4364 71.3524 28.6788C70.7248 29.1924 67.9612 30.6831 64.612 30.6832H62.9861C59.1717 30.6831 56.5323 28.7031 57.4583 26.1597C58.3832 23.6178 60.4204 22.3221 65.3524 22.0043L72.7075 21.7839C73.4438 21.7103 73.7467 21.5914 73.9471 21.0009C74.1578 20.2932 72.8192 19.8768 70.8394 19.8767H69.7361C67.8546 19.8768 66.3297 20.6035 65.9158 21.0078C65.8222 21.1002 65.6957 21.1484 65.5642 21.1484L59.9184 21.1241C59.7798 21.1239 59.689 20.9794 59.7483 20.855C60.614 19.0219 63.813 16.4054 70.7752 16.4054H72.2023ZM72.5651 24.1988C71.6817 24.2996 70.2424 24.4476 68.6858 24.5946C65.2188 24.9124 64.2277 25.2556 63.7665 26.0382C63.3291 26.8942 64.0356 27.2604 66.0903 27.2604C69.6877 27.2604 71.855 25.9925 72.5486 24.8151L72.7465 24.4783C72.8246 24.3455 72.718 24.181 72.5651 24.1988Z" fill="var(--surface-solid-default, #FFFFFFFF)"></path><path d="M100.319 16.8142C100.433 16.8142 100.524 16.9065 100.524 17.0191V20.8655C100.524 20.9792 100.432 21.0703 100.319 21.0703H94.2934C94.1797 21.0705 94.0885 21.1635 94.0885 21.276V30.2005C94.0885 30.3142 93.9962 30.4052 93.8837 30.4054H88.1181C88.0044 30.4051 87.9132 30.313 87.9132 30.2005V21.276C87.9132 21.1622 87.8209 21.0704 87.7083 21.0703H81.6814C81.5676 21.0703 81.4766 20.9781 81.4766 20.8655V17.0191C81.4766 16.9053 81.5688 16.8142 81.6814 16.8142H100.319Z" fill="var(--surface-solid-default, #FFFFFFFF)"></path><path d="M55.9219 16.7439C56.0616 16.744 56.1743 16.858 56.1745 16.9965L56.1753 16.9991V30.151C56.1753 30.291 56.0615 30.4036 55.9227 30.4036H50.3273C50.1875 30.4035 50.0747 30.2897 50.0747 30.151V26.1398C50.0746 25.9881 49.9447 25.8713 49.7943 25.8889C48.5884 26.0371 46.5891 26.1198 45.0252 26.1198C38.6816 26.1198 36.6398 24.3813 36.6398 19.7795V16.9983C36.6398 16.8584 36.7536 16.7457 36.8924 16.7457H42.546C42.6858 16.7458 42.7986 16.8596 42.7986 16.9983V19.3151C42.7987 21.4693 43.7386 21.934 46.2378 21.934C47.0145 21.934 49.0101 21.875 49.8472 21.7908C49.9764 21.7778 50.0737 21.6686 50.0738 21.5382V16.9965C50.0739 16.8567 50.1878 16.7439 50.3264 16.7439H55.9219Z" fill="var(--surface-solid-default, #FFFFFFFF)"></path><path d="M48.7335 1.7934C48.8472 1.7934 48.9391 1.88577 48.9392 1.99826V5.55295C48.9392 5.66678 48.8461 5.75868 48.7335 5.75868H43.0009C42.8871 5.75875 42.796 5.85097 42.796 5.96354V15.1814C42.796 15.2951 42.7036 15.3861 42.5911 15.3863H36.8446C36.731 15.3862 36.64 15.293 36.6398 15.1806V1.99826C36.6399 1.88464 36.7322 1.79349 36.8446 1.7934H48.7335Z" fill="var(--surface-solid-default, #FFFFFFFF)"></path><path d="M56.0165 1.79427C56.1302 1.79427 56.2212 1.88661 56.2214 1.99913V9.33507C56.2214 9.52347 56.4524 9.6114 56.5781 9.47309L63.4462 1.86198C63.4841 1.81929 63.54 1.79427 63.5981 1.79427H69.4575C69.5712 1.79427 69.6631 1.88661 69.6632 1.99913V15.1806C69.6632 15.2944 69.5701 15.3863 69.4575 15.3863H63.7118C63.598 15.3863 63.5069 15.2932 63.5069 15.1806V7.86198C63.5069 7.67474 63.2759 7.58556 63.1502 7.72396L56.2821 15.3186C56.243 15.3612 56.1883 15.3863 56.1302 15.3863H50.2708C50.157 15.3863 50.0651 15.2932 50.0651 15.1806V1.99913C50.0652 1.88543 50.1583 1.79427 50.2708 1.79427H56.0165Z" fill="var(--surface-solid-default, #FFFFFFFF)"></path><path d="M83.2457 1.7934C83.3592 1.79359 83.4503 1.88588 83.4505 1.99826V5.55295C83.4505 5.66666 83.3581 5.75849 83.2457 5.75868H77.5122C77.3985 5.75881 77.3073 5.85101 77.3073 5.96354V15.1814C77.3072 15.2951 77.2149 15.3861 77.1024 15.3863H71.3559C71.2423 15.3861 71.1513 15.2929 71.151 15.1806V1.99826C71.1512 1.88467 71.2435 1.79355 71.3559 1.7934H83.2457Z" fill="var(--surface-solid-default, #FFFFFFFF)"></path><path fill-rule="evenodd" clip-rule="evenodd" d="M95.3741 1.7908C95.4357 1.79089 95.4927 1.82464 95.52 1.87674L102.686 15.1589C102.741 15.2632 102.662 15.3863 102.54 15.3863H95.7144C95.6504 15.3863 95.5912 15.3508 95.5651 15.2951L94.7474 13.5964C94.7201 13.5406 94.6621 13.5043 94.5981 13.5043H87.1701C87.1049 13.5043 87.0464 13.5415 87.0191 13.5972L86.2205 15.2943C86.1944 15.3499 86.1346 15.3863 86.0694 15.3863H79.8733C79.7523 15.3863 79.6727 15.2667 79.7248 15.1623L86.4583 1.88021C86.4856 1.82567 86.5439 1.7908 86.6068 1.7908H95.3741ZM90.9878 5.88281C90.9285 5.76213 90.7474 5.76214 90.6892 5.88281L88.9401 9.53733C88.8903 9.64043 88.9698 9.75769 89.0894 9.75781H92.6198C92.7393 9.7576 92.8186 9.63945 92.7691 9.53646L92.77 9.53733L90.9878 5.88281Z" fill="var(--surface-solid-default, #FFFFFFFF)"></path></svg>