<svg width="24" height="24" viewBox="0 0 24 24" fill="none" xmlns="http://www.w3.org/2000/svg">
<g clip-path="url(#clip0_95_248)">
<path d="M24 12C24 5.37258 18.6274 0 12 0C5.37258 0 0 5.37258 0 12C0 18.6274 5.37258 24 12 24C18.6274 24 24 18.6274 24 12Z" fill="white"/>
<path d="M12.2428 13.4673L17.8 6.05475H15.1142L10.9001 11.6762L12.2428 13.4673Z" fill="black"/>
<path d="M8.88578 17.9452L10.2287 16.1541L8.88578 14.363L6.20001 17.9452H8.88578Z" fill="black"/>
<path d="M12.2428 17.9452H14.9285L8.88578 9.88483H6.20001L12.2428 17.9452Z" fill="black"/>
<path d="M17.8 6.95044L15.6 9.88484L15.82 17.9453H17.58L17.8 6.95044Z" fill="black"/>
</g>
<defs>
<clipPath id="clip0_95_248">
<rect width="24" height="24" fill="white"/>
</clipPath>
</defs>
</svg>
